<mxfile host="app.diagrams.net" agent="Mozilla/5.0 (Windows NT 10.0; Win64; x64) AppleWebKit/537.36 (KHTML, like Gecko) Chrome/132.0.0.0 Safari/537.36" version="26.0.10">
  <diagram name="Page-1" id="naDgxq9hPJfGREdNGfwv">
    <mxGraphModel dx="2868" dy="1544" grid="1" gridSize="10" guides="1" tooltips="1" connect="1" arrows="1" fold="1" page="0" pageScale="1" pageWidth="827" pageHeight="1169" math="0" shadow="0">
      <root>
        <mxCell id="0" />
        <mxCell id="1" parent="0" />
        <mxCell id="1TQYSV50GIfUT1ScGd_1-3" value="" style="edgeStyle=orthogonalEdgeStyle;rounded=0;orthogonalLoop=1;jettySize=auto;html=1;" edge="1" parent="1" source="1TQYSV50GIfUT1ScGd_1-1" target="1TQYSV50GIfUT1ScGd_1-2">
          <mxGeometry relative="1" as="geometry" />
        </mxCell>
        <mxCell id="1TQYSV50GIfUT1ScGd_1-1" value="" style="shape=ellipse;html=1;fillColor=strokeColor;fontSize=18;fontColor=#ffffff;" vertex="1" parent="1">
          <mxGeometry x="390" y="380" width="40" height="40" as="geometry" />
        </mxCell>
        <mxCell id="1TQYSV50GIfUT1ScGd_1-5" value="" style="edgeStyle=orthogonalEdgeStyle;rounded=0;orthogonalLoop=1;jettySize=auto;html=1;" edge="1" parent="1" source="1TQYSV50GIfUT1ScGd_1-2" target="1TQYSV50GIfUT1ScGd_1-4">
          <mxGeometry relative="1" as="geometry" />
        </mxCell>
        <mxCell id="1TQYSV50GIfUT1ScGd_1-2" value="search catalog" style="rounded=1;whiteSpace=wrap;html=1;" vertex="1" parent="1">
          <mxGeometry x="350" y="490" width="120" height="60" as="geometry" />
        </mxCell>
        <mxCell id="1TQYSV50GIfUT1ScGd_1-7" value="" style="edgeStyle=orthogonalEdgeStyle;rounded=0;orthogonalLoop=1;jettySize=auto;html=1;" edge="1" parent="1" source="1TQYSV50GIfUT1ScGd_1-4" target="1TQYSV50GIfUT1ScGd_1-6">
          <mxGeometry relative="1" as="geometry" />
        </mxCell>
        <mxCell id="1TQYSV50GIfUT1ScGd_1-8" style="edgeStyle=orthogonalEdgeStyle;rounded=0;orthogonalLoop=1;jettySize=auto;html=1;entryX=1;entryY=0.5;entryDx=0;entryDy=0;exitX=1;exitY=0.5;exitDx=0;exitDy=0;" edge="1" parent="1" source="1TQYSV50GIfUT1ScGd_1-4" target="1TQYSV50GIfUT1ScGd_1-2">
          <mxGeometry relative="1" as="geometry">
            <Array as="points">
              <mxPoint x="520" y="660" />
              <mxPoint x="520" y="520" />
            </Array>
          </mxGeometry>
        </mxCell>
        <mxCell id="1TQYSV50GIfUT1ScGd_1-4" value="" style="rhombus;whiteSpace=wrap;html=1;rounded=1;" vertex="1" parent="1">
          <mxGeometry x="370" y="620" width="80" height="80" as="geometry" />
        </mxCell>
        <mxCell id="1TQYSV50GIfUT1ScGd_1-10" value="" style="edgeStyle=orthogonalEdgeStyle;rounded=0;orthogonalLoop=1;jettySize=auto;html=1;" edge="1" parent="1" source="1TQYSV50GIfUT1ScGd_1-6" target="1TQYSV50GIfUT1ScGd_1-9">
          <mxGeometry relative="1" as="geometry" />
        </mxCell>
        <mxCell id="1TQYSV50GIfUT1ScGd_1-6" value="check availability" style="whiteSpace=wrap;html=1;rounded=1;" vertex="1" parent="1">
          <mxGeometry x="190" y="630" width="120" height="60" as="geometry" />
        </mxCell>
        <mxCell id="1TQYSV50GIfUT1ScGd_1-14" value="" style="edgeStyle=orthogonalEdgeStyle;rounded=0;orthogonalLoop=1;jettySize=auto;html=1;exitX=0;exitY=0.5;exitDx=0;exitDy=0;entryX=0;entryY=0.5;entryDx=0;entryDy=0;" edge="1" parent="1" source="1TQYSV50GIfUT1ScGd_1-9" target="1TQYSV50GIfUT1ScGd_1-13">
          <mxGeometry relative="1" as="geometry">
            <Array as="points">
              <mxPoint x="110" y="800" />
              <mxPoint x="110" y="1180" />
            </Array>
          </mxGeometry>
        </mxCell>
        <mxCell id="1TQYSV50GIfUT1ScGd_1-17" value="" style="edgeStyle=orthogonalEdgeStyle;rounded=0;orthogonalLoop=1;jettySize=auto;html=1;" edge="1" parent="1" source="1TQYSV50GIfUT1ScGd_1-9" target="1TQYSV50GIfUT1ScGd_1-16">
          <mxGeometry relative="1" as="geometry" />
        </mxCell>
        <mxCell id="1TQYSV50GIfUT1ScGd_1-9" value="" style="rhombus;whiteSpace=wrap;html=1;rounded=1;" vertex="1" parent="1">
          <mxGeometry x="210" y="760" width="80" height="80" as="geometry" />
        </mxCell>
        <mxCell id="1TQYSV50GIfUT1ScGd_1-11" value="found" style="text;html=1;align=center;verticalAlign=middle;resizable=0;points=[];autosize=1;strokeColor=none;fillColor=none;" vertex="1" parent="1">
          <mxGeometry x="322" y="608" width="50" height="30" as="geometry" />
        </mxCell>
        <mxCell id="1TQYSV50GIfUT1ScGd_1-12" value="not found" style="text;html=1;align=center;verticalAlign=middle;resizable=0;points=[];autosize=1;strokeColor=none;fillColor=none;" vertex="1" parent="1">
          <mxGeometry x="434" y="608" width="70" height="30" as="geometry" />
        </mxCell>
        <mxCell id="1TQYSV50GIfUT1ScGd_1-25" value="" style="edgeStyle=orthogonalEdgeStyle;rounded=0;orthogonalLoop=1;jettySize=auto;html=1;" edge="1" parent="1" source="1TQYSV50GIfUT1ScGd_1-13" target="1TQYSV50GIfUT1ScGd_1-24">
          <mxGeometry relative="1" as="geometry" />
        </mxCell>
        <mxCell id="1TQYSV50GIfUT1ScGd_1-13" value="checkout book" style="whiteSpace=wrap;html=1;rounded=1;" vertex="1" parent="1">
          <mxGeometry x="190" y="1150" width="120" height="60" as="geometry" />
        </mxCell>
        <mxCell id="1TQYSV50GIfUT1ScGd_1-15" value="available" style="text;html=1;align=center;verticalAlign=middle;resizable=0;points=[];autosize=1;strokeColor=none;fillColor=none;" vertex="1" parent="1">
          <mxGeometry x="130" y="760" width="70" height="30" as="geometry" />
        </mxCell>
        <mxCell id="1TQYSV50GIfUT1ScGd_1-19" value="" style="edgeStyle=orthogonalEdgeStyle;rounded=0;orthogonalLoop=1;jettySize=auto;html=1;" edge="1" parent="1" source="1TQYSV50GIfUT1ScGd_1-16" target="1TQYSV50GIfUT1ScGd_1-18">
          <mxGeometry relative="1" as="geometry" />
        </mxCell>
        <mxCell id="1TQYSV50GIfUT1ScGd_1-16" value="hold place" style="whiteSpace=wrap;html=1;rounded=1;" vertex="1" parent="1">
          <mxGeometry x="340" y="850" width="120" height="60" as="geometry" />
        </mxCell>
        <mxCell id="1TQYSV50GIfUT1ScGd_1-20" style="edgeStyle=orthogonalEdgeStyle;rounded=0;orthogonalLoop=1;jettySize=auto;html=1;entryX=1;entryY=0.5;entryDx=0;entryDy=0;exitX=0.5;exitY=1;exitDx=0;exitDy=0;" edge="1" parent="1" source="1TQYSV50GIfUT1ScGd_1-18" target="1TQYSV50GIfUT1ScGd_1-13">
          <mxGeometry relative="1" as="geometry">
            <mxPoint x="330" y="1180" as="targetPoint" />
          </mxGeometry>
        </mxCell>
        <mxCell id="1TQYSV50GIfUT1ScGd_1-18" value="get notification" style="whiteSpace=wrap;html=1;rounded=1;" vertex="1" parent="1">
          <mxGeometry x="340" y="990" width="120" height="60" as="geometry" />
        </mxCell>
        <mxCell id="1TQYSV50GIfUT1ScGd_1-21" value="not available&amp;nbsp;&lt;div&gt;but, place a hold&lt;/div&gt;" style="text;html=1;align=center;verticalAlign=middle;resizable=0;points=[];autosize=1;strokeColor=none;fillColor=none;" vertex="1" parent="1">
          <mxGeometry x="290" y="755" width="110" height="40" as="geometry" />
        </mxCell>
        <mxCell id="1TQYSV50GIfUT1ScGd_1-22" value="" style="shape=mxgraph.sysml.actFinal;html=1;verticalLabelPosition=bottom;labelBackgroundColor=#ffffff;verticalAlign=top;" vertex="1" parent="1">
          <mxGeometry x="230" y="1610" width="40" height="40" as="geometry" />
        </mxCell>
        <mxCell id="1TQYSV50GIfUT1ScGd_1-27" value="" style="edgeStyle=orthogonalEdgeStyle;rounded=0;orthogonalLoop=1;jettySize=auto;html=1;" edge="1" parent="1" source="1TQYSV50GIfUT1ScGd_1-24" target="1TQYSV50GIfUT1ScGd_1-26">
          <mxGeometry relative="1" as="geometry" />
        </mxCell>
        <mxCell id="1TQYSV50GIfUT1ScGd_1-24" value="overdue books" style="whiteSpace=wrap;html=1;rounded=1;" vertex="1" parent="1">
          <mxGeometry x="190" y="1290" width="120" height="60" as="geometry" />
        </mxCell>
        <mxCell id="1TQYSV50GIfUT1ScGd_1-34" value="" style="edgeStyle=orthogonalEdgeStyle;rounded=0;orthogonalLoop=1;jettySize=auto;html=1;" edge="1" parent="1" source="1TQYSV50GIfUT1ScGd_1-26" target="1TQYSV50GIfUT1ScGd_1-33">
          <mxGeometry relative="1" as="geometry" />
        </mxCell>
        <mxCell id="1TQYSV50GIfUT1ScGd_1-26" value="" style="rhombus;whiteSpace=wrap;html=1;rounded=1;" vertex="1" parent="1">
          <mxGeometry x="210" y="1420" width="80" height="80" as="geometry" />
        </mxCell>
        <mxCell id="1TQYSV50GIfUT1ScGd_1-30" style="edgeStyle=orthogonalEdgeStyle;rounded=0;orthogonalLoop=1;jettySize=auto;html=1;exitX=1;exitY=0.5;exitDx=0;exitDy=0;entryX=1;entryY=0.5;entryDx=0;entryDy=0;entryPerimeter=0;" edge="1" parent="1" source="1TQYSV50GIfUT1ScGd_1-26" target="1TQYSV50GIfUT1ScGd_1-22">
          <mxGeometry relative="1" as="geometry">
            <Array as="points">
              <mxPoint x="340" y="1460" />
              <mxPoint x="340" y="1630" />
            </Array>
          </mxGeometry>
        </mxCell>
        <mxCell id="1TQYSV50GIfUT1ScGd_1-31" value="no" style="text;html=1;align=center;verticalAlign=middle;resizable=0;points=[];autosize=1;strokeColor=none;fillColor=none;" vertex="1" parent="1">
          <mxGeometry x="280" y="1408" width="40" height="30" as="geometry" />
        </mxCell>
        <mxCell id="1TQYSV50GIfUT1ScGd_1-32" value="yes" style="text;html=1;align=center;verticalAlign=middle;resizable=0;points=[];autosize=1;strokeColor=none;fillColor=none;" vertex="1" parent="1">
          <mxGeometry x="170" y="1408" width="40" height="30" as="geometry" />
        </mxCell>
        <mxCell id="1TQYSV50GIfUT1ScGd_1-33" value="warning message" style="whiteSpace=wrap;html=1;rounded=1;" vertex="1" parent="1">
          <mxGeometry x="30" y="1430" width="120" height="60" as="geometry" />
        </mxCell>
        <mxCell id="1TQYSV50GIfUT1ScGd_1-35" style="edgeStyle=orthogonalEdgeStyle;rounded=0;orthogonalLoop=1;jettySize=auto;html=1;entryX=0;entryY=0.5;entryDx=0;entryDy=0;entryPerimeter=0;exitX=0.45;exitY=0.983;exitDx=0;exitDy=0;exitPerimeter=0;" edge="1" parent="1" source="1TQYSV50GIfUT1ScGd_1-33" target="1TQYSV50GIfUT1ScGd_1-22">
          <mxGeometry relative="1" as="geometry" />
        </mxCell>
      </root>
    </mxGraphModel>
  </diagram>
</mxfile>
